<?xml version="1.0" encoding="UTF-8" standalone="no"?>
<svg
   width="500"
   height="500"
   viewBox="0 0 500 500"
   version="1.1"
   xml:space="preserve"
   id="SVGRoot"
   inkscape:version="1.4 (86a8ad7, 2024-10-11)"
   sodipodi:docname="sun-icon.svg"
   xmlns:inkscape="http://www.inkscape.org/namespaces/inkscape"
   xmlns:sodipodi="http://sodipodi.sourceforge.net/DTD/sodipodi-0.dtd"
   xmlns="http://www.w3.org/2000/svg"
   xmlns:svg="http://www.w3.org/2000/svg"><defs
   id="defs2" />
<sodipodi:namedview
   pagecolor="#ffffff"
   bordercolor="#292929"
   borderopacity="1"
   inkscape:showpageshadow="2"
   inkscape:pageopacity="0.0"
   inkscape:pagecheckerboard="true"
   inkscape:deskcolor="#232323"
   id="namedview1"
   inkscape:zoom="0.47808275"
   inkscape:cx="943.35133"
   inkscape:cy="917.20523"
   inkscape:window-width="2560"
   inkscape:window-height="1494"
   inkscape:window-x="-11"
   inkscape:window-y="-11"
   inkscape:window-maximized="1"
   inkscape:current-layer="g2" />
<style
   type="text/css"
   id="style1">
g.prefab path {
  vector-effect:non-scaling-stroke;
  -inkscape-stroke:hairline;
  fill: none;
  fill-opacity: 1;
  stroke-opacity: 1;
  stroke: #00349c;
}
</style>
<g
   inkscape:label="Target"
   style="fill:#ffffff;stroke:#000000;stroke-width:2"
   class="prefab"
   id="g2">
  
  
<path
   id="path6"
   style="fill:#ffbe02;fill-opacity:1;stroke:none;stroke-width:1.30048;stroke-dasharray:none;stroke-opacity:1"
   d="m 262.12377,0 c -2.44419,62.579844 -2.52859,92.411184 -20.84945,117.39899 8.77095,11.37555 9.86738,24.31638 5.7615,35.46243 -10.28776,-0.49515 -25.81007,0.48546 -27.24167,-2.50626 -14.59448,-5.08546 -25.5085,-35.10171 -28.99317,-26.80024 4.20637,33.9196 8.15625,50.41597 -8.00913,50.32693 -25.89018,0.86066 -25.01738,-15.39316 -34.22224,-20.30454 -31.97498,-27.74305 -95.345201,-65.194146 -96.960941,-55.244158 -7.22298,0.0101 48.328747,34.504638 61.961221,57.200018 9.90769,10.78807 23.22943,21.50674 22.46631,32.51108 17.18214,13.25213 30.79968,20.79792 50.12524,24.32533 A 105.37327,112.02903 0 0 1 272.79166,163.77033 105.37327,112.02903 0 0 1 378.16442,275.79949 105.37327,112.02903 0 0 1 272.79166,387.82868 105.37327,112.02903 0 0 1 167.4189,275.79949 105.37327,112.02903 0 0 1 183.18968,217.09247 c -2.72204,3.89333 -5.34248,7.81278 -7.52031,11.84672 -14.84334,1.19325 -49.4505,-18.46701 -50.25138,-13.91416 -1.89259,10.75887 8.4569,20.46004 8.52825,18.32236 13.89602,11.2674 8.37281,13.58167 2.50841,18.32236 -16.79002,15.51917 -23.7542,-2.23357 -34.78261,-6.22364 -23.72568,-9.0692 -44.242101,-6.54553 -60.869553,-6.22237 -24.265217,4.92681 -6.002883,7.50963 0.920631,10.71709 26.404652,8.3338 44.537632,19.57666 58.945812,34.56975 h 13.7124 c 19.64099,-1.06651 21.57445,9.68282 24.08074,20.05003 -5.09326,15.27696 -19.78115,15.22778 -34.44782,15.2118 L 52.173909,351.23034 C 41.158543,375.696 10.521817,383.93516 0,399.62772 c 22.918462,-1.0134 50.696959,-13.43004 66.55588,-24.88949 l 9.69876,-15.90263 c 22.152626,-24.09195 35.65083,-7.31347 38.87994,1.72893 l 26.08698,-1.29637 c 0.75257,-6.57361 -0.59811,-22.4159 9.53134,-17.02598 0.37598,18.336 -3.20029,35.3407 -10.28459,49.08947 l 13.71244,1.03683 8.02727,-7.2592 c 23.36555,-10.71556 22.71006,-0.2999 26.08698,6.56844 l 38.79509,-0.69213 c 30.72745,13.22257 55.16225,10.00153 77.92727,2.41979 18.11125,-5.43814 28.88957,-13.1244 53.51178,-19.0132 26.05768,1.82853 25.89732,9.31498 33.10998,15.21051 H 400 l -5.6851,-8.64208 c -9.40764,-7.11171 -18.95189,-14.2179 -17.05656,-21.77896 l 11.37145,-24.1987 c 13.71349,-37.80731 12.42789,-76.35272 -0.3348,-115.46321 -12.92733,-6.91397 -15.05001,-13.82814 -20.40182,-20.7421 0,0 9.36521,-25.23681 10.70305,-25.23681 1.33783,0 -4.6832,-0.34478 -4.6832,-0.34478 -7.70657,2.39302 -15.93777,8.04242 -23.07641,6.91319 l -5.35155,-8.29609 c -1.16562,-11.49364 1.50184,-22.32676 4.01366,-33.18686 l 19.06398,-37.68157 c -12.74193,8.31836 -26.20353,12.59906 -31.77326,23.85268 l -19.73234,27.31051 c -10.28552,-4.10373 -10.70956,-9.13383 -14.71552,-13.82765 -4.22942,4.86633 -3.54523,13.22398 -21.07017,8.64212 -3.55752,-3.51056 -7.6711,-4.87814 -8.02733,-20.7421 0.2791,-6.05786 2.31882,-15.37354 7.27533,-20.05003 C 281.56894,69.055004 275.84112,33.242821 262.12377,0 Z" /></g>
</svg>
